# xmcd
#
# Track frame offsets:
#        150
#        23778
#        56288
#        80455
#        136788
#        173333
#        216463
#        257643
#
# Disc length: 3810 seconds
#
# Revision: 1
# Processed by: cddbd v1.5.1PL2 Copyright (c) Steve Scherf et al.
# Submitted via: ExactAudioCopy v0.95a5
#
DISCID=5f0ee008
DTITLE=Cannonball Adderley - The Best of Cannonball Adderley
DYEAR=2005
DGENRE=Jazz
TTITLE0=Waltz For Debby
TTITLE1=Things Are Getting Better
TTITLE2=Groovin' High
TTITLE3=This Here
TTITLE4=Bohemia After Dark
TTITLE5=Nippon Soul
TTITLE6=Work Song
TTITLE7=GoodBye
EXTD=YEAR: 2005
EXTT0=
EXTT1=
EXTT2=
EXTT3=
EXTT4=
EXTT5=
EXTT6=
EXTT7=
PLAYORDER=
